<svg xmlns="http://www.w3.org/2000/svg" viewBox="0 0 256 256" role="img" aria-label="Chocolates premiados">
  <defs>
    <linearGradient id="cell" x1="0" y1="0" x2="1" y2="1"><stop offset="0" stop-color="#74604d"/><stop offset="1" stop-color="#54453a"/></linearGradient>
    <linearGradient id="gold" x1="0" y1="0" x2="0" y2="1"><stop offset="0" stop-color="#e8c98f"/><stop offset=".55" stop-color="#c2983a"/><stop offset="1" stop-color="#a8743c"/></linearGradient>
    <mask id="frameM" maskUnits="userSpaceOnUse" x="0" y="0" width="256" height="256"><rect x="8" y="8" width="240" height="240" rx="52" fill="white"/></mask>
  </defs>
  <rect x="8" y="8" width="240" height="240" rx="52" fill="#2f5d49"/>
  <rect x="28" y="28" width="200" height="200" rx="30" fill="#33271d"/>
  <path d="M58.0,40.0 H85.7 A7,7 0 0 1 92.7,47.0 V85.7 A7,7 0 0 1 85.7,92.7 H47.0 A7,7 0 0 1 40.0,85.7 V58.0 A18,18 0 0 1 58.0,40.0 Z" fill="url(#cell)"/><path d="M108.7,40.0 H147.3 A7,7 0 0 1 154.3,47.0 V85.7 A7,7 0 0 1 147.3,92.7 H108.7 A7,7 0 0 1 101.7,85.7 V47.0 A7,7 0 0 1 108.7,40.0 Z" fill="url(#cell)"/><path d="M170.3,40.0 H198.0 A18,18 0 0 1 216.0,58.0 V85.7 A7,7 0 0 1 209.0,92.7 H170.3 A7,7 0 0 1 163.3,85.7 V47.0 A7,7 0 0 1 170.3,40.0 Z" fill="url(#cell)"/><path d="M47.0,101.7 H85.7 A7,7 0 0 1 92.7,108.7 V147.3 A7,7 0 0 1 85.7,154.3 H47.0 A7,7 0 0 1 40.0,147.3 V108.7 A7,7 0 0 1 47.0,101.7 Z" fill="url(#cell)"/><path d="M108.7,101.7 H147.3 A7,7 0 0 1 154.3,108.7 V147.3 A7,7 0 0 1 147.3,154.3 H108.7 A7,7 0 0 1 101.7,147.3 V108.7 A7,7 0 0 1 108.7,101.7 Z" fill="url(#cell)"/><path d="M170.3,101.7 H209.0 A7,7 0 0 1 216.0,108.7 V147.3 A7,7 0 0 1 209.0,154.3 H170.3 A7,7 0 0 1 163.3,147.3 V108.7 A7,7 0 0 1 170.3,101.7 Z" fill="url(#cell)"/><path d="M47.0,163.3 H85.7 A7,7 0 0 1 92.7,170.3 V209.0 A7,7 0 0 1 85.7,216.0 H58.0 A18,18 0 0 1 40.0,198.0 V170.3 A7,7 0 0 1 47.0,163.3 Z" fill="url(#cell)"/><path d="M108.7,163.3 H147.3 A7,7 0 0 1 154.3,170.3 V209.0 A7,7 0 0 1 147.3,216.0 H108.7 A7,7 0 0 1 101.7,209.0 V170.3 A7,7 0 0 1 108.7,163.3 Z" fill="url(#cell)"/><path d="M170.3,163.3 H209.0 A7,7 0 0 1 216.0,170.3 V198.0 A18,18 0 0 1 198.0,216.0 H170.3 A7,7 0 0 1 163.3,209.0 V170.3 A7,7 0 0 1 170.3,163.3 Z" fill="url(#cell)"/>
  <g mask="url(#frameM)"><path d="M 116.9 33.9 L 144.0 65.7 L 169.9 58.8 L 191.3 86.4 L 222.3 102.1 L 288.0 102.1 L 288.0 -32.0 L 116.9 -32.0 Z" fill="#1a130c" opacity=".5"/><path d="M 116.0 26.0 L 146.0 58.0 L 174.0 52.0 L 198.0 82.0 L 230.0 100.0 L 288.0 100.0 L 288.0 -32.0 L 116.0 -32.0 Z" fill="#2f5d49"/></g>
  <path d="M128.0,78.0 L141.5,109.4 L175.6,112.5 L149.9,135.1 L157.4,168.5 L128.0,151.0 L98.6,168.5 L106.1,135.1 L80.4,112.5 L114.5,109.4 Z" fill="url(#gold)" stroke="#8a5e2e" stroke-width="2.5" stroke-linejoin="round"/>
</svg>